<svg width="90" height="110" viewBox="0 0 90 110" xmlns="http://www.w3.org/2000/svg">
  <!-- Drop shadow -->
  <rect x="4" y="4" width="86" height="106" rx="4" fill="#160412" opacity="0.45"/>

  <!-- Frame body -->
  <rect x="0" y="0" width="86" height="106" rx="4" fill="#6b2347"/>

  <!-- Frame top highlight edge -->
  <rect x="0" y="0" width="86" height="5" rx="4" fill="#9b3465" opacity="0.7"/>

  <!-- Frame bottom shadow edge -->
  <rect x="0" y="101" width="86" height="5" rx="2" fill="#3a0f23" opacity="0.7"/>

  <!-- Frame inner bevel -->
  <rect x="10" y="10" width="66" height="86" rx="2" fill="#3d1a30"/>

  <!-- Canvas / picture area -->
  <rect x="12" y="12" width="62" height="82" fill="#2d1224"/>

  <!-- Person icon -->
  <!-- Head -->
  <circle cx="43" cy="50" r="10" fill="#7b2d50"/>
  <!-- Body -->
  <path d="M26 82 Q26 60 43 58 Q60 60 60 82 Z" fill="#7b2d50"/>

  <!-- Pink accent corner decorations -->
  <rect x="0" y="0" width="10" height="2" rx="1" fill="#fb7185" opacity="0.6"/>
  <rect x="0" y="0" width="2" height="10" rx="1" fill="#fb7185" opacity="0.6"/>
  <rect x="76" y="0" width="10" height="2" rx="1" fill="#fb7185" opacity="0.6"/>
  <rect x="84" y="0" width="2" height="10" rx="1" fill="#fb7185" opacity="0.6"/>
  <rect x="0" y="104" width="10" height="2" rx="1" fill="#fb7185" opacity="0.6"/>
  <rect x="0" y="96" width="2" height="10" rx="1" fill="#fb7185" opacity="0.6"/>
  <rect x="76" y="104" width="10" height="2" rx="1" fill="#fb7185" opacity="0.6"/>
  <rect x="84" y="96" width="2" height="10" rx="1" fill="#fb7185" opacity="0.6"/>
</svg>
